<svg xmlns="http://www.w3.org/2000/svg" width="512" height="512" viewBox="0 0 512 512">
  <defs>
    <linearGradient id="gradient" x1="0%" y1="0%" x2="100%" y2="100%">
      <stop offset="0%" stop-color="#4CAF50" />
      <stop offset="100%" stop-color="#2E7D32" />
    </linearGradient>
  </defs>
  <rect width="512" height="512" rx="64" fill="url(#gradient)" />
  <g fill="#FFFFFF">
    <!-- Stylized plant/crop icon -->
    <path d="M256 96c-26.51 0-48 21.49-48 48 0 19.882 12.082 36.912 29.28 44.16-10.56 10.56-17.28 25.2-17.28 41.28 0 16.08 6.72 30.72 17.28 41.28C219.082 279.088 207 296.118 207 316c0 26.51 21.49 48 48 48s48-21.49 48-48c0-19.882-12.082-36.912-29.28-44.16 10.56-10.56 17.28-25.2 17.28-41.28 0-16.08-6.72-30.72-17.28-41.28C292.918 180.912 305 163.882 305 144c0-26.51-21.49-48-48-48z" />
    <!-- Stylized water droplet -->
    <path d="M384 256c-26.51 0-48 21.49-48 48 0 26.51 21.49 48 48 48s48-21.49 48-48c0-26.51-21.49-48-48-48zm0 72c-13.255 0-24-10.745-24-24s10.745-24 24-24 24 10.745 24 24-10.745 24-24 24z" />
    <!-- Stylized sun -->
    <path d="M128 256c-26.51 0-48 21.49-48 48 0 26.51 21.49 48 48 48s48-21.49 48-48c0-26.51-21.49-48-48-48zm0 72c-13.255 0-24-10.745-24-24s10.745-24 24-24 24 10.745 24 24-10.745 24-24 24z" />
    <!-- Horizontal line representing ground -->
    <rect x="96" y="384" width="320" height="24" rx="12" />
  </g>
</svg>