<svg xmlns="http://www.w3.org/2000/svg" width="192" height="192" viewBox="0 0 192 192">
  <defs>
    <linearGradient id="gradient" x1="0%" y1="0%" x2="100%" y2="100%">
      <stop offset="0%" stop-color="#4CAF50" />
      <stop offset="100%" stop-color="#2E7D32" />
    </linearGradient>
  </defs>
  <rect width="192" height="192" rx="32" fill="url(#gradient)" />
  <g fill="#FFFFFF">
    <!-- Stylized plant/crop icon -->
    <path d="M96 40c-8.837 0-16 7.163-16 16 0 6.627 4.027 12.304 9.76 14.72-3.52 3.52-5.76 8.4-5.76 13.76 0 5.36 2.24 10.24 5.76 13.76C84.027 100.696 80 106.373 80 113c0 8.837 7.163 16 16 16s16-7.163 16-16c0-6.627-4.027-12.304-9.76-14.72 3.52-3.52 5.76-8.4 5.76-13.76 0-5.36-2.24-10.24-5.76-13.76C107.973 68.304 112 62.627 112 56c0-8.837-7.163-16-16-16z" />
    <!-- Stylized water droplet -->
    <path d="M144 96c-8.837 0-16 7.163-16 16 0 8.837 7.163 16 16 16s16-7.163 16-16c0-8.837-7.163-16-16-16zm0 24c-4.418 0-8-3.582-8-8s3.582-8 8-8 8 3.582 8 8-3.582 8-8 8z" />
    <!-- Stylized sun -->
    <path d="M48 96c-8.837 0-16 7.163-16 16 0 8.837 7.163 16 16 16s16-7.163 16-16c0-8.837-7.163-16-16-16zm0 24c-4.418 0-8-3.582-8-8s3.582-8 8-8 8 3.582 8 8-3.582 8-8 8z" />
    <!-- Horizontal line representing ground -->
    <rect x="32" y="144" width="128" height="8" rx="4" />
  </g>
</svg>